HIERARCHY
ROOT Hips
{
	OFFSET 0.000000 0.000000 0.000000
	CHANNELS 6 Xposition Yposition Zposition Zrotation Yrotation Xrotation 
	JOINT LHipJoint
	{
		OFFSET 0.000000 0.000000 0.000000
		CHANNELS 3 Zrotation Yrotation Xrotation
		JOINT LeftUpLeg
		{
			OFFSET 1.363060 -1.794630 0.839290
			CHANNELS 3 Zrotation Yrotation Xrotation
			JOINT LeftLeg
			{
				OFFSET 2.448110 -6.726130 0.000000
				CHANNELS 3 Zrotation Yrotation Xrotation
				JOINT LeftFoot
				{
					OFFSET 2.562200 -7.039590 0.000000
					CHANNELS 3 Zrotation Yrotation Xrotation
					JOINT LeftToeBase
					{
						OFFSET 0.157640 -0.433110 2.322550
						CHANNELS 3 Zrotation Yrotation Xrotation
						End Site
						{
							OFFSET 0.000000 0.000000 0.000000
						}
					}
				}
			}
		}
	}
	JOINT RHipJoint
	{
		OFFSET 0.000000 0.000000 0.000000
		CHANNELS 3 Zrotation Yrotation Xrotation
		JOINT RightUpLeg
		{
			OFFSET -1.305520 -1.794630 0.839290
			CHANNELS 3 Zrotation Yrotation Xrotation
			JOINT RightLeg
			{
				OFFSET -2.542530 -6.985550 0.000000
				CHANNELS 3 Zrotation Yrotation Xrotation
				JOINT RightFoot
				{
					OFFSET -2.568260 -7.056230 0.000000
					CHANNELS 3 Zrotation Yrotation Xrotation
					JOINT RightToeBase
					{
						OFFSET -0.164730 -0.452590 2.363150
						CHANNELS 3 Zrotation Yrotation Xrotation
						End Site
						{
							OFFSET 0.000000 0.000000 0.000000
						}
					}
				}
			}
		}
	}
}
MOTION
Frames: 19
Frame Time: 0.008333
-2.818209 18.002137 -0.602940 -131.338573 88.416530 -128.687179 -10.390170 1.991606 1.404170 -18.027092 14.114316 -25.183743 -2.462736 -0.210635 8.683771 0.899665 8.161820 8.420921 2.580600 -0.000000 -37.301000 9.855443 -4.886219 0.386906 5.637906 -10.284234 4.976872 0.548025 -2.182236 20.968830 -0.722062 -0.819544 25.364768 -0.309700 -0.000000 -72.116200
-2.603832 18.033849 -0.643399 -125.594722 88.110641 -123.337620 -10.488035 2.096265 1.322897 -18.204303 15.012121 -24.652780 -2.497527 -0.196038 7.763624 0.763341 7.346044 9.884565 2.512000 -0.000000 -39.567800 9.842402 -4.902663 0.315839 5.486181 -10.660944 5.100448 0.455262 -2.239144 22.039795 -0.827889 -1.523519 25.639597 -0.658100 -0.000000 -71.072300
-2.392710 18.053927 -0.683433 -123.779153 87.809446 -121.917784 -10.610680 2.189782 1.227424 -18.401056 15.902982 -24.154731 -2.515590 -0.171771 7.115532 0.675587 6.759684 11.010315 2.439000 0.000000 -41.153699 9.795824 -4.900243 0.206733 5.293793 -11.115484 5.154489 0.368178 -2.293893 23.232639 -0.949625 -2.627387 25.199155 -1.217400 0.000000 -69.982400
-2.184749 18.062291 -0.723101 -123.854132 87.502166 -122.381026 -10.738820 2.274040 1.125122 -18.588173 16.743943 -23.671998 -2.516873 -0.142737 6.700430 0.630167 6.411557 11.796923 2.388300 -0.000001 -41.951800 9.733699 -4.877056 0.064492 5.076618 -11.629892 5.144184 0.286645 -2.344460 24.498374 -1.091332 -4.086229 24.117987 -1.930100 0.000000 -68.833700
-1.979716 18.058916 -0.762470 -124.799423 87.184850 -123.697403 -10.864511 2.349331 1.025408 -18.742041 17.482787 -23.180004 -2.501711 -0.113339 6.468872 0.621729 6.305320 12.251013 2.378200 0.000000 -41.897200 9.663579 -4.830104 -0.106279 4.842341 -12.184321 5.071957 0.211634 -2.387872 25.792727 -1.256791 -5.816830 22.489087 -2.708601 0.000000 -67.553000
-1.777342 18.043783 -0.801539 -126.036890 86.856761 -125.279107 -10.984330 2.414142 0.935916 -18.844260 18.075752 -22.660160 -2.471492 -0.087207 6.380787 0.644405 6.423753 12.373434 2.411000 -0.000000 -40.945101 9.589106 -4.758015 -0.299368 4.599212 -12.755938 4.935935 0.145102 -2.421379 27.076974 -1.448817 -7.718443 20.423892 -3.457800 0.000000 -66.056399
-1.577338 18.016916 -0.840369 -127.229913 86.519936 -126.779854 -11.096801 2.465811 0.862140 -18.883957 18.489891 -22.103897 -2.428679 -0.067285 6.409054 0.692313 6.731636 12.155171 2.474700 0.000000 -39.069800 9.512255 -4.661528 -0.507009 4.355119 -13.319956 4.729220 0.088981 -2.443248 28.321182 -1.667674 -9.687699 18.048046 -4.094100 -0.000000 -64.299300
-1.379476 17.978340 -0.878907 -128.202050 86.180981 -128.014936 -11.201153 2.501472 0.806463 -18.859921 18.708315 -21.515039 -2.376955 -0.055409 6.544232 0.759838 7.178944 11.576425 2.544600 -0.000000 -36.267400 9.434523 -4.543126 -0.720801 4.114669 -13.852652 4.439182 0.044463 -2.453395 29.509098 -1.909241 -11.626640 15.488298 -4.557400 0.000000 -62.264000
-1.183679 17.928080 -0.916877 -128.964421 85.856943 -128.989981 -11.293675 2.518345 0.774759 -18.779129 18.678519 -20.864170 -2.316652 -0.055348 6.737279 0.848715 7.771225 10.652596 2.613500 0.000001 -32.746500 9.361474 -4.404070 -0.938352 3.860395 -14.341765 4.053326 0.011819 -2.454419 30.645142 -2.162367 -13.431541 12.847248 -4.806000 -0.000000 -59.822700
-0.989773 17.866261 -0.954109 -129.441248 85.555871 -129.620611 -11.374166 2.515045 0.759312 -18.662611 18.451762 -20.214587 -2.256386 -0.064332 7.054005 0.950963 8.404222 9.322598 2.624601 0.000000 -28.430500 9.292466 -4.250166 -1.145605 3.605302 -14.755295 3.547428 -0.010479 -2.448279 31.733026 -2.417243 -15.055735 10.248249 -4.850400 0.000000 -57.275000
-0.797863 17.793135 -0.989998 -129.780790 85.300745 -130.052351 -11.434835 2.490988 0.762120 -18.539416 17.994712 -19.550966 -2.197308 -0.084303 7.464266 1.072768 9.097752 7.609164 2.569200 0.000000 -23.602500 9.236648 -4.081568 -1.341487 3.318545 -15.086102 2.903440 -0.024281 -2.439591 32.801986 -2.657302 -16.429654 7.752811 -4.700600 0.000001 -54.628300
-0.608141 17.709055 -1.023949 -130.018221 85.104026 -130.319121 -11.472075 2.447208 0.771364 -18.441024 17.370317 -18.930639 -2.147074 -0.110533 8.033563 1.211754 9.783647 5.493064 2.404300 -0.000000 -18.412200 9.197674 -3.901117 -1.517272 2.997204 -15.312470 2.102714 -0.031751 -2.432100 33.879148 -2.870144 -17.527365 5.416170 -4.394800 0.000000 -52.084101
-0.420904 17.614665 -1.055106 -130.289077 84.980946 -130.557587 -11.478195 2.386667 0.778397 -18.403162 16.614557 -18.383280 -2.110893 -0.138910 8.794274 1.370828 10.444252 3.000779 2.111300 0.000001 -13.140500 9.184015 -3.708186 -1.669077 2.621412 -15.424280 1.131127 -0.035183 -2.429674 34.998350 -3.044539 -18.326398 3.256636 -3.969900 0.000001 -49.771500
-0.236572 17.510908 -1.082549 -130.726661 84.940314 -130.905152 -11.446485 2.314454 0.770611 -18.458351 15.789389 -17.950884 -2.095118 -0.162291 9.797296 1.550276 11.050411 0.173911 1.676000 0.000001 -8.072200 9.203331 -3.501459 -1.792637 2.177039 -15.412778 -0.019796 -0.036449 -2.435432 36.189559 -3.173547 -18.821708 1.269894 -3.462600 -0.000000 -47.799400
-0.055584 17.399027 -1.105314 -131.485626 84.983546 -131.522618 -11.371490 2.237758 0.734338 -18.630962 14.966141 -17.675201 -2.105799 -0.171401 11.095160 1.747804 11.573782 -2.924723 1.098100 0.000000 -3.478999 9.262290 -3.279071 -1.884387 1.655393 -15.274132 -1.351803 -0.036778 -2.451768 37.475220 -3.254439 -19.021338 -0.566501 -2.904600 0.000000 -46.221600
0.121587 17.280602 -1.122714 -132.715631 85.100108 -132.565804 -11.251993 2.164850 0.656802 -18.929805 14.219225 -17.597966 -2.147298 -0.155298 12.738821 1.957589 11.985914 -6.216844 -179.606900 0.000000 -0.429300 9.363535 -3.040114 -1.940902 1.061342 -15.007341 -2.860232 -0.036489 -2.480324 38.866336 -3.289063 -18.949342 -2.284897 -2.322500 0.000000 -45.035500
0.294537 17.157544 -1.133853 -134.697946 85.275599 -134.326500 -11.083682 2.105381 0.531304 -19.362742 13.584064 -17.715622 -2.218961 -0.105816 14.720168 2.175682 12.298350 -9.591676 179.599301 0.000001 -3.504900 9.513149 -2.781723 -1.963997 0.384981 -14.628117 -4.527435 -0.035409 -2.522952 40.361940 -3.280838 -18.629807 -3.924793 -1.734700 -0.000001 -44.172101
0.462985 17.032109 -1.138901 -137.560690 85.471951 -136.936208 -10.876859 2.064412 0.355091 -19.900850 13.099223 -18.046228 -2.315245 -0.014698 17.046808 2.393691 12.506235 -12.952857 178.758000 0.000000 -5.734799 9.702583 -2.507618 -1.951749 -0.336769 -14.141944 -6.338451 -0.031862 -2.580736 41.943669 -3.238842 -18.116822 -5.510413 -1.163200 -0.000000 -43.554800
0.626913 16.906893 -1.137872 -141.580511 85.650124 -140.679135 -10.637613 2.044732 0.134213 -20.523788 12.748224 -18.542681 -2.423793 0.117771 19.638243 2.608315 12.650926 -16.181849 177.916600 0.000000 -7.168900 9.927817 -2.220360 -1.908753 -1.094310 -13.575622 -8.265333 -0.023987 -2.655922 43.581450 -3.171510 -17.458068 -7.059677 -0.623300 -0.000000 -43.075400
